<svg width="26" height="26" viewBox="0 0 26 26" fill="none" xmlns="http://www.w3.org/2000/svg">
<g clip-path="url(#clip0_1482_1643)">
<path d="M18.2435 3.11396L13.6481 4.67836C12.8798 4.93934 12.2233 5.45422 11.7867 6.1382C11.3501 6.82218 11.1596 7.63446 11.2464 8.44124C10.8226 7.74942 10.1759 7.22242 9.41284 6.94692C8.64973 6.67141 7.81559 6.66381 7.04759 6.92536L2.45575 8.48855C2.03736 8.63116 1.6927 8.93406 1.49755 9.33068C1.30239 9.72729 1.27269 10.1852 1.41498 10.6037L4.16552 18.6833C4.30813 19.1017 4.61103 19.4464 5.00765 19.6415C5.40426 19.8367 5.86214 19.8664 6.28064 19.7241L9.22887 18.7204C12.5883 17.5768 13.8635 18.0373 14.9097 19.5377C14.9642 19.6221 15.1121 19.5718 15.1067 19.4706C15.0239 17.6429 15.7531 16.4994 19.1089 15.357L22.0571 14.3533C22.4755 14.2107 22.8202 13.9078 23.0154 13.5112C23.2105 13.1146 23.2402 12.6567 23.0979 12.2382L20.3486 4.16211C20.2066 3.74507 19.9056 3.40101 19.5112 3.20488C19.1167 3.00875 18.6607 2.97643 18.2425 3.11496L18.2435 3.11396ZM11.8023 15.0411C11.8076 15.0561 11.8098 15.0721 11.8089 15.088C11.808 15.104 11.8038 15.1196 11.7968 15.1339C11.7897 15.1482 11.7799 15.161 11.7678 15.1715C11.7558 15.182 11.7418 15.1899 11.7266 15.1949L6.4573 16.9887C6.44224 16.9939 6.42628 16.9961 6.41037 16.9951C6.39445 16.9941 6.37889 16.99 6.36458 16.983C6.35027 16.9759 6.3375 16.9661 6.32701 16.9541C6.31652 16.9421 6.30851 16.9281 6.30345 16.913L6.04725 16.1604C6.0261 16.0983 6.05728 16.0289 6.12295 16.0066L11.3952 14.2118C11.4573 14.1906 11.5267 14.2218 11.5491 14.2875L11.8053 15.0401L11.8023 15.0411ZM11.1209 13.0395C11.1261 13.0546 11.1283 13.0705 11.1273 13.0864C11.1263 13.1023 11.1222 13.1179 11.1152 13.1322C11.1081 13.1465 11.0983 13.1593 11.0863 13.1698C11.0743 13.1803 11.0603 13.1883 11.0452 13.1933L5.77591 14.9872C5.76085 14.9924 5.74489 14.9946 5.72898 14.9936C5.71306 14.9926 5.6975 14.9884 5.68319 14.9814C5.66888 14.9744 5.65611 14.9646 5.64562 14.9525C5.63513 14.9405 5.62712 14.9266 5.62206 14.9115L5.36586 14.1589C5.34451 14.0961 5.37589 14.0274 5.44156 14.005L10.7138 12.2102C10.7759 12.189 10.8453 12.2202 10.8677 12.2859L11.1239 13.0385L11.1209 13.0395ZM10.4395 11.0379C10.4447 11.053 10.4469 11.0689 10.4459 11.0849C10.4449 11.1008 10.4408 11.1163 10.4338 11.1306C10.4267 11.1449 10.4169 11.1577 10.4049 11.1682C10.3929 11.1787 10.3789 11.1867 10.3638 11.1918L5.09452 12.9856C5.07946 12.9908 5.0635 12.993 5.04759 12.992C5.03167 12.991 5.01611 12.9869 5.0018 12.9798C4.98749 12.9728 4.97472 12.963 4.96423 12.951C4.95374 12.939 4.94573 12.925 4.94067 12.9099L4.68447 12.1573C4.66332 12.0952 4.6945 12.0258 4.76017 12.0034L10.0324 10.2086C10.0945 10.1875 10.1639 10.2187 10.1863 10.2843L10.4425 11.0369L10.4395 11.0379ZM20.3247 12.1365C20.3299 12.1516 20.3321 12.1675 20.3311 12.1834C20.3301 12.1994 20.326 12.2149 20.3189 12.2292C20.3119 12.2435 20.3021 12.2563 20.2901 12.2668C20.2781 12.2773 20.2641 12.2853 20.249 12.2904L14.9797 14.0842C14.9646 14.0894 14.9487 14.0916 14.9328 14.0906C14.9168 14.0896 14.9013 14.0855 14.887 14.0784C14.8727 14.0714 14.8599 14.0616 14.8494 14.0496C14.8389 14.0376 14.8309 14.0236 14.8258 14.0085L14.5696 13.2559C14.5485 13.1938 14.5797 13.1244 14.6453 13.102L19.9176 11.3072C19.9803 11.2859 20.0491 11.3172 20.0714 11.3829L20.3276 12.1355L20.3247 12.1365ZM19.6433 10.1349C19.6486 10.15 19.6508 10.166 19.6499 10.1819C19.6489 10.1979 19.6448 10.2134 19.6378 10.2278C19.6307 10.2421 19.6209 10.2549 19.6088 10.2654C19.5968 10.2758 19.5828 10.2838 19.5676 10.2888L14.2983 12.0826C14.2832 12.0878 14.2673 12.09 14.2514 12.089C14.2354 12.088 14.2199 12.0839 14.2056 12.0768C14.1913 12.0698 14.1785 12.06 14.168 12.048C14.1575 12.036 14.1495 12.022 14.1444 12.0069L13.8882 11.2543C13.8671 11.1922 13.8983 11.1228 13.9639 11.1005L19.2362 9.30563C19.2989 9.28428 19.3677 9.31566 19.3901 9.38134L19.6463 10.1339L19.6433 10.1349ZM18.9617 8.13277C18.9669 8.14784 18.9691 8.16379 18.9681 8.17971C18.9671 8.19562 18.963 8.21118 18.9559 8.22549C18.9489 8.2398 18.9391 8.25257 18.9271 8.26306C18.9151 8.27356 18.9011 8.28156 18.886 8.28662L13.6167 10.0804C13.6016 10.0857 13.5857 10.0878 13.5698 10.0868C13.5539 10.0859 13.5383 10.0817 13.524 10.0747C13.5097 10.0676 13.4969 10.0578 13.4864 10.0458C13.4759 10.0338 13.4679 10.0199 13.4629 10.0047L13.2077 9.2551C13.1865 9.19298 13.2177 9.1236 13.2834 9.10125L18.5556 7.30643C18.6183 7.28508 18.6871 7.31646 18.7095 7.38213L18.9647 8.13176L18.9617 8.13277Z" fill="white"/>
</g>
<defs>
<clipPath id="clip0_1482_1643">
<rect width="20" height="20" fill="white" transform="translate(0 6.44531) rotate(-18.8)"/>
</clipPath>
</defs>
</svg>
